<svg width="18" height="18" viewBox="0 0 18 18" fill="none" xmlns="http://www.w3.org/2000/svg">
<path d="M2.25 2.25V1.5C2.05109 1.5 1.86032 1.57902 1.71967 1.71967C1.57902 1.86032 1.5 2.05109 1.5 2.25H2.25ZM13.7197 10.7198L13.0365 10.4107C12.9737 10.5496 12.9547 10.7043 12.9821 10.8542C13.0094 11.0042 13.0817 11.1422 13.1895 11.25L13.7197 10.7198ZM15.75 12.75L16.2803 13.2803C16.4209 13.1396 16.4998 12.9489 16.4998 12.75C16.4998 12.5511 16.4209 12.3604 16.2803 12.2197L15.75 12.75ZM12.75 15.75L12.2197 16.2803C12.3604 16.4209 12.5511 16.4998 12.75 16.4998C12.9489 16.4998 13.1396 16.4209 13.2803 16.2803L12.75 15.75ZM10.7198 13.7197L11.25 13.1895C11.1422 13.0816 11.004 13.0091 10.8539 12.9818C10.7038 12.9545 10.549 12.9735 10.41 13.0365L10.7198 13.7197ZM8.25 1.5H2.25V3H8.25V1.5ZM15 8.25C15 7.36358 14.8254 6.48583 14.4862 5.66689C14.147 4.84794 13.6498 4.10382 13.023 3.47703C12.3962 2.85023 11.6521 2.35303 10.8331 2.01381C10.0142 1.67459 9.13642 1.5 8.25 1.5V3C9.64239 3 10.9777 3.55312 11.9623 4.53769C12.9469 5.52226 13.5 6.85761 13.5 8.25H15ZM14.403 11.0287C14.797 10.1554 15.0005 9.20812 15 8.25H13.5C13.5004 8.99472 13.3425 9.73177 13.0365 10.4107L14.403 11.0287ZM13.1895 11.25L15.2197 13.2803L16.2803 12.2197L14.25 10.1895L13.1895 11.25ZM15.2197 12.2197L12.2197 15.2197L13.2803 16.2803L16.2803 13.2803L15.2197 12.2197ZM13.2803 15.2197L11.25 13.1895L10.1895 14.25L12.2197 16.2803L13.2803 15.2197ZM8.25 15C9.20812 15.0005 10.1554 14.797 11.0287 14.403L10.41 13.0365C9.73079 13.3426 8.99498 13.5006 8.25 13.5V15ZM1.5 8.25C1.5 10.0402 2.21116 11.7571 3.47703 13.023C4.7429 14.2888 6.45979 15 8.25 15V13.5C6.85761 13.5 5.52226 12.9469 4.53769 11.9623C3.55312 10.9777 3 9.64239 3 8.25H1.5ZM1.5 2.25V8.25H3V2.25H1.5Z" fill="#747474"/>
<path d="M8.25 6.75C7.42157 6.75 6.75 7.42157 6.75 8.25C6.75 9.07843 7.42157 9.75 8.25 9.75C9.07843 9.75 9.75 9.07843 9.75 8.25C9.75 7.42157 9.07843 6.75 8.25 6.75Z" fill="#747474"/>
<path d="M2.25 2.25L8.25 8.25" stroke="#747474" stroke-width="2" stroke-linecap="round" stroke-linejoin="round"/>
</svg>
